; Drill file
; Format: 3.3 (000.000)
M48
METRIC
T01C0.3
T02C0.8
T03C0.9
T04C1.2
%
G05
G90
T01
X016.510Y012.060
X024.130Y010.800
X046.040Y013.340
X047.310Y014.290
X035.560Y033.970
X017.780Y041.590
X005.720Y026.670
T02
X002.220Y009.520
X004.760Y009.520
X006.980Y014.600
X006.980Y017.460
X010.160Y016.830
X012.160Y016.830
X012.700Y022.220
X010.160Y022.220
X007.620Y022.220
X003.900Y021.910
X001.900Y021.910
X001.900Y017.460
X001.900Y014.600
X015.240Y022.220
X017.780Y022.220
X020.960Y022.220
X024.130Y022.220
X025.080Y020.000
X026.670Y022.220
X029.840Y022.220
X030.160Y020.000
X032.380Y022.220
X033.660Y017.140
X035.660Y017.140
X035.660Y011.430
X033.660Y011.430
X029.840Y012.700
X026.830Y012.700
X026.830Y005.080
X029.840Y005.080
X041.910Y005.080
X041.910Y012.700
X045.080Y020.640
X047.080Y020.640
X046.990Y025.400
X043.970Y025.720
X041.910Y024.210
X041.910Y027.300
X041.910Y032.460
X043.970Y033.970
X041.910Y035.560
X046.990Y035.560
X046.990Y033.020
X046.990Y043.180
X037.350Y043.040
X037.350Y037.960
X034.130Y037.780
X032.070Y036.270
X032.070Y039.370
X028.890Y040.000
X024.920Y037.780
X022.860Y036.270
X022.860Y039.370
X019.050Y039.290
X016.990Y037.780
X019.050Y036.200
X019.050Y032.380
X016.510Y032.380
X015.240Y029.840
X017.780Y029.840
X020.960Y027.300
X024.130Y029.840
X026.670Y029.840
X026.670Y032.380
X028.890Y032.380
X029.840Y029.840
X032.380Y029.840
X026.320Y046.000
X023.780Y046.000
X013.490Y037.780
X011.430Y036.270
X011.430Y039.370
X005.080Y037.460
X003.900Y040.640
X003.900Y042.640
X011.430Y032.380
X010.160Y029.840
X007.620Y029.840
X005.080Y029.840
X012.700Y029.840
T03
X005.080Y005.080
X012.700Y005.080
T04
X001.900Y001.900
X005.080Y001.900
X008.890Y001.900
X014.700Y001.900
X017.460Y001.900
X020.320Y001.900
X023.300Y001.900
X026.350Y001.900
X029.840Y001.900
X033.660Y001.900
X040.320Y001.900
X043.500Y001.900
X047.310Y001.900
X030.100Y017.000
X025.020Y017.000
X019.940Y017.000
X022.080Y012.720
X022.080Y007.640
X011.920Y010.180
X010.020Y047.000
X004.940Y047.000
X015.100Y047.000
X034.940Y047.000
X040.020Y047.000
X045.100Y047.000
M30
