%FSLAX34Y34*%
%MOMM*%
%LNCOPPER_BOTTOM*%
G71*
G01*
%ADD10C, 2.700*%
%ADD11C, 2.000*%
%ADD12C, 0.800*%
%ADD13C, 0.238*%
%ADD14C, 0.150*%
%ADD15C, 0.600*%
%ADD16C, 2.900*%
%ADD17C, 2.200*%
%ADD18C, 2.400*%
%ADD19C, 1.200*%
%ADD20C, 1.000*%
%ADD21C, 1.200*%
%ADD22C, 2.800*%
%ADD23C, 1.100*%
%ADD24C, 0.900*%
%ADD25C, 0.200*%
%ADD26C, 0.767*%
%ADD27C, 0.533*%
%ADD28C, 0.833*%
%ADD29C, 2.300*%
%ADD30C, 1.600*%
%ADD31C, 2.500*%
%ADD32C, 1.800*%
%ADD33C, 2.000*%
%ADD34C, 0.800*%
%ADD35C, 2.400*%
%ADD36C, 0.700*%
%ADD37C, 0.500*%
%LPD*%
G36*
X-200000Y700000D02*
X529000Y700000D01*
X529000Y-200000D01*
X-200000Y-200000D01*
X-200000Y700000D01*
G37*
%LPC*%
X19050Y19050D02*
G54D10*
D03*
G36*
X37300Y32550D02*
X64300Y32550D01*
X64300Y5550D01*
X37300Y5550D01*
X37300Y32550D01*
G37*
X174625Y19050D02*
G54D10*
D03*
G36*
X189700Y32550D02*
X216700Y32550D01*
X216700Y5550D01*
X189700Y5550D01*
X189700Y32550D01*
G37*
X22225Y95250D02*
G54D11*
D03*
G36*
X37625Y105250D02*
X57625Y105250D01*
X57625Y85250D01*
X37625Y85250D01*
X37625Y105250D01*
G37*
G36*
X284950Y32550D02*
X311950Y32550D01*
X311950Y5550D01*
X284950Y5550D01*
X284950Y32550D01*
G37*
X19050Y146050D02*
G54D11*
D03*
X69850Y146050D02*
G54D11*
D03*
G36*
X459575Y32550D02*
X486575Y32550D01*
X486575Y5550D01*
X459575Y5550D01*
X459575Y32550D01*
G37*
X19050Y219075D02*
G54D11*
D03*
G36*
X29050Y229074D02*
X49050Y229074D01*
X49050Y209074D01*
X29050Y209074D01*
X29050Y229074D01*
G37*
G54D12*
X40000Y500000D02*
X460000Y500000D01*
G54D12*
G75*
G01X460000Y500000D02*
G03X500000Y460000I40000J0D01*
G01*
G54D12*
G75*
G01X485000Y0D02*
G03X500000Y15000I0J15000D01*
G01*
G54D12*
X0Y460000D02*
X0Y15000D01*
G54D12*
G75*
G01X0Y15000D02*
G03X15000Y0I15000J0D01*
G01*
G54D12*
X485000Y0D02*
X15000Y0D01*
G54D12*
G75*
G01X0Y460000D02*
G03X40000Y500000I0J40000D01*
G01*
G54D12*
X500000Y15000D02*
X500000Y460000D01*
G54D13*
X214388Y468372D02*
X214388Y481706D01*
X211055Y481706D01*
X209721Y480872D01*
X209055Y479206D01*
X209055Y477539D01*
X209721Y475872D01*
X211055Y475039D01*
X209721Y474206D01*
X209055Y472539D01*
X209055Y470872D01*
X209721Y469206D01*
X211055Y468372D01*
X214388Y468372D01*
G54D13*
X214388Y475039D02*
X211055Y475039D01*
G54D13*
X201721Y468372D02*
X201721Y481706D01*
G54D13*
X204388Y481706D02*
X199055Y481706D01*
G54D13*
X194388Y468372D02*
X194388Y481706D01*
X191055Y473372D01*
X187721Y481706D01*
X187721Y468372D01*
G36*
X17500Y17500D02*
X2500Y17500D01*
X0Y15000D01*
X15000Y0D01*
X20000Y0D01*
X20000Y15000D01*
X17500Y17500D01*
G37*
G54D14*
X17500Y17500D02*
X2500Y17500D01*
X0Y15000D01*
X15000Y0D01*
X20000Y0D01*
X20000Y15000D01*
X17500Y17500D01*
G36*
X75400Y32550D02*
X102400Y32550D01*
X102400Y5550D01*
X75400Y5550D01*
X75400Y32550D01*
G37*
G36*
X0Y-200000D02*
X-200000Y-200000D01*
X-200000Y700000D01*
X0Y700000D01*
X0Y-200000D01*
G37*
G54D15*
X0Y-200000D02*
X-200000Y-200000D01*
X-200000Y700000D01*
X0Y700000D01*
X0Y-200000D01*
G36*
X-200000Y700000D02*
X700000Y700000D01*
X700000Y502500D01*
X-200000Y502500D01*
X-200000Y700000D01*
G37*
G54D15*
X-200000Y700000D02*
X700000Y700000D01*
X700000Y502500D01*
X-200000Y502500D01*
X-200000Y700000D01*
G36*
X700000Y700000D02*
X700000Y-202500D01*
X500000Y-200000D01*
X500000Y697500D01*
X700000Y700000D01*
G37*
G54D15*
X700000Y700000D02*
X700000Y-202500D01*
X500000Y-200000D01*
X500000Y697500D01*
X700000Y700000D01*
G36*
X677500Y0D02*
X-200000Y0D01*
X-200000Y-200000D01*
X677500Y-200000D01*
X677500Y0D01*
G37*
G54D15*
X677500Y0D02*
X-200000Y0D01*
X-200000Y-200000D01*
X677500Y-200000D01*
X677500Y0D01*
G36*
X37500Y507500D02*
X37500Y485000D01*
X15000Y465000D01*
X-2500Y460000D01*
X-5000Y462500D01*
X-5000Y505000D01*
X37500Y507500D01*
G37*
G54D15*
X37500Y507500D02*
X37500Y485000D01*
X15000Y465000D01*
X-2500Y460000D01*
X-5000Y462500D01*
X-5000Y505000D01*
X37500Y507500D01*
G36*
X465000Y500000D02*
X465000Y485000D01*
X485000Y465000D01*
X502500Y465000D01*
X502500Y497500D01*
X495000Y505000D01*
X465000Y500000D01*
G37*
G54D15*
X465000Y500000D02*
X465000Y485000D01*
X485000Y465000D01*
X502500Y465000D01*
X502500Y497500D01*
X495000Y505000D01*
X465000Y500000D01*
X451000Y470000D02*
G54D16*
D03*
X400200Y470000D02*
G54D16*
D03*
X349400Y470000D02*
G54D16*
D03*
X150962Y470000D02*
G54D16*
D03*
X100162Y470000D02*
G54D16*
D03*
X49362Y470000D02*
G54D16*
D03*
X301000Y169962D02*
G54D16*
D03*
X250200Y169963D02*
G54D16*
D03*
X199400Y169962D02*
G54D16*
D03*
X190500Y361950D02*
G54D17*
D03*
X190500Y392906D02*
G54D17*
D03*
X169862Y377825D02*
G54D17*
D03*
X127000Y50800D02*
G54D18*
D03*
X50800Y50800D02*
G54D18*
D03*
G54D19*
X50800Y50800D02*
X50800Y19050D01*
G54D19*
X44450Y95250D02*
X44450Y136525D01*
X53975Y146050D01*
X69850Y146050D01*
G54D19*
X44450Y95250D02*
X76200Y95250D01*
X95250Y76200D01*
X146050Y76200D01*
X146050Y44450D01*
X120650Y19050D01*
X89925Y19050D01*
X88375Y17500D01*
X147002Y19050D02*
G54D10*
D03*
X190500Y323850D02*
G54D11*
D03*
X266700Y323850D02*
G54D11*
D03*
X19050Y174625D02*
G54D11*
D03*
X69850Y174625D02*
G54D11*
D03*
G54D19*
X69850Y174625D02*
X44450Y174625D01*
X38100Y180975D01*
X38100Y218124D01*
X39050Y219074D01*
G54D19*
X127000Y50800D02*
X92075Y50800D01*
X73025Y69850D01*
X50800Y69850D01*
X44450Y76200D01*
X44450Y95250D01*
X228600Y393700D02*
G54D17*
D03*
X228600Y362744D02*
G54D17*
D03*
X249237Y377825D02*
G54D17*
D03*
G54D20*
X190500Y361950D02*
X227806Y361950D01*
X228600Y362744D01*
G54D20*
X169862Y377825D02*
X249237Y377825D01*
G54D20*
X190500Y392906D02*
X227806Y392906D01*
X228600Y393700D01*
X76200Y298450D02*
G54D11*
D03*
X76200Y222250D02*
G54D11*
D03*
X101600Y298450D02*
G54D11*
D03*
X101600Y222250D02*
G54D11*
D03*
X152400Y298450D02*
G54D11*
D03*
X152400Y222250D02*
G54D11*
D03*
X177800Y298450D02*
G54D11*
D03*
X177800Y222250D02*
G54D11*
D03*
X241300Y298450D02*
G54D11*
D03*
X241300Y222250D02*
G54D11*
D03*
X114300Y393700D02*
G54D17*
D03*
X114300Y362744D02*
G54D17*
D03*
X134938Y377825D02*
G54D17*
D03*
X114300Y323850D02*
G54D11*
D03*
X165100Y323850D02*
G54D11*
D03*
G54D19*
X95250Y222250D02*
X69850Y222250D01*
X42226Y222250D01*
X39050Y219074D01*
X127000Y298450D02*
G54D11*
D03*
X127000Y222250D02*
G54D11*
D03*
G54D20*
X152400Y222250D02*
X152400Y209550D01*
X146050Y203200D01*
X107950Y203200D01*
X101600Y209550D01*
X101600Y222250D01*
X57150Y266700D02*
G54D21*
D03*
G54D19*
X101600Y298450D02*
X101600Y273050D01*
X95250Y266700D01*
X57150Y266700D01*
G54D19*
X101600Y298450D02*
X82550Y317500D01*
X82550Y381000D01*
X95250Y393700D01*
X114300Y393700D01*
G54D20*
X114300Y362744D02*
X114300Y323850D01*
X114300Y311150D01*
X127000Y298450D01*
G54D20*
X134938Y377825D02*
X134938Y315912D01*
X152400Y298450D01*
G54D20*
X152400Y298450D02*
X177800Y298450D01*
X50800Y374650D02*
G54D11*
D03*
X50800Y298450D02*
G54D11*
D03*
X39050Y426400D02*
G54D11*
D03*
G36*
X49050Y416400D02*
X49050Y396400D01*
X29050Y396400D01*
X29050Y416400D01*
X49050Y416400D01*
G37*
G54D20*
X39050Y409574D02*
X39050Y386400D01*
X50800Y374650D01*
G54D20*
X190500Y392906D02*
X178594Y392906D01*
X152400Y419100D01*
X88900Y419100D01*
X76200Y406400D01*
G54D20*
X76200Y406400D02*
X39050Y406400D01*
G54D19*
X190500Y323850D02*
X165100Y323850D01*
G54D20*
X266700Y323850D02*
X266700Y360362D01*
X249237Y377825D01*
X220819Y76446D02*
G54D22*
D03*
X220819Y127246D02*
G54D22*
D03*
X119219Y101846D02*
G54D22*
D03*
G54D19*
X220819Y127246D02*
X220819Y125569D01*
X171450Y76200D01*
X146050Y76200D01*
X266700Y298450D02*
G54D11*
D03*
X266700Y222250D02*
G54D11*
D03*
G54D20*
X266700Y323850D02*
X266700Y298450D01*
X101600Y168275D02*
G54D11*
D03*
G36*
X111600Y178274D02*
X131600Y178274D01*
X131600Y158274D01*
X111600Y158274D01*
X111600Y178274D01*
G37*
G54D20*
X119219Y101846D02*
X119219Y165894D01*
X121600Y168274D01*
X209550Y273050D02*
G54D11*
D03*
X209550Y222250D02*
G54D11*
D03*
X320675Y393700D02*
G54D17*
D03*
X320675Y362744D02*
G54D17*
D03*
X341312Y377825D02*
G54D17*
D03*
G54D20*
X209550Y273050D02*
X209550Y273050D01*
X177800Y241300D01*
X177800Y222250D01*
G54D20*
X241300Y222250D02*
X209550Y222250D01*
X165100Y120650D02*
G54D21*
D03*
X241300Y107950D02*
G54D23*
D03*
G54D24*
X209550Y222250D02*
X209550Y209550D01*
X193675Y196850D01*
X184150Y196850D01*
X165100Y177800D01*
X165100Y120650D01*
G54D24*
X266700Y222250D02*
X266700Y231850D01*
X257200Y241350D01*
X203250Y241350D01*
X193675Y231775D01*
X193675Y215900D01*
X187325Y209550D01*
X177800Y209550D01*
X136525Y168275D01*
X121600Y168274D01*
X288856Y399970D02*
G54D11*
D03*
X288856Y323770D02*
G54D11*
D03*
G54D20*
X320675Y393700D02*
X295126Y393700D01*
X288856Y399970D01*
X336550Y171450D02*
G54D11*
D03*
G36*
X346550Y181450D02*
X366550Y181450D01*
X366550Y161450D01*
X346550Y161450D01*
X346550Y181450D01*
G37*
X250825Y200025D02*
G54D11*
D03*
X301625Y200025D02*
G54D11*
D03*
X177800Y415925D02*
G54D21*
D03*
G54D20*
X177800Y415925D02*
X238125Y415925D01*
X254000Y400050D01*
X288776Y400050D01*
X288856Y399970D01*
X298450Y298450D02*
G54D11*
D03*
X298450Y222250D02*
G54D11*
D03*
X323850Y298450D02*
G54D11*
D03*
X323850Y222250D02*
G54D11*
D03*
G54D20*
X320675Y362744D02*
X320675Y320675D01*
X298450Y298450D01*
G54D20*
X250825Y200025D02*
X229462Y200025D01*
X199400Y169962D01*
G54D20*
X339725Y168275D02*
X302687Y168275D01*
X301000Y169962D01*
G54D20*
X288856Y323770D02*
X288856Y314256D01*
X282575Y307975D01*
X282575Y266700D01*
X295275Y254000D01*
X342900Y254000D01*
X358775Y238125D01*
X358775Y169225D01*
G54D20*
X341312Y377825D02*
X341312Y315912D01*
X323850Y298450D01*
G54D20*
X241300Y107950D02*
X241300Y57150D01*
X203200Y19050D01*
X373504Y430396D02*
G54D11*
D03*
X373504Y379596D02*
G54D11*
D03*
G54D20*
X341312Y377825D02*
X371732Y377825D01*
X373504Y379596D01*
G54D20*
X373504Y430396D02*
X389121Y430396D01*
X400050Y441325D01*
X400050Y469850D01*
X400200Y470000D01*
X336550Y114300D02*
G54D11*
D03*
G36*
X346550Y124300D02*
X366550Y124300D01*
X366550Y104300D01*
X346550Y104300D01*
X346550Y124300D01*
G37*
X355600Y339725D02*
G54D23*
D03*
X268288Y127000D02*
G54D11*
D03*
X268288Y50800D02*
G54D11*
D03*
X298450Y127000D02*
G54D11*
D03*
X298450Y50800D02*
G54D11*
D03*
G54D20*
X336550Y114300D02*
X311150Y114300D01*
X298450Y127000D01*
X268288Y127000D01*
G54D20*
X298450Y50800D02*
X298450Y19050D01*
X233045Y19050D02*
G54D10*
D03*
X263525Y19050D02*
G54D10*
D03*
X237778Y460000D02*
G54D17*
D03*
G36*
X274178Y449000D02*
X252178Y449000D01*
X252178Y471000D01*
X274178Y471000D01*
X274178Y449000D01*
G37*
G54D20*
X222250Y127000D02*
X241300Y127000D01*
X282575Y85725D01*
X320675Y85725D01*
X336550Y69850D01*
X393700Y69850D01*
X419100Y50800D01*
X419100Y355600D02*
G54D17*
D03*
X419100Y324644D02*
G54D17*
D03*
X439738Y339725D02*
G54D17*
D03*
G54D20*
X263178Y460000D02*
X263178Y454372D01*
X273050Y444500D01*
X323850Y444500D01*
X355600Y412750D01*
G54D20*
X237778Y460000D02*
X237778Y454372D01*
X260350Y431800D01*
X317500Y431800D01*
X349250Y400050D01*
X412750Y400050D01*
X419100Y393700D01*
G54D20*
X355600Y412750D02*
X450850Y412750D01*
X469900Y330200D02*
G54D11*
D03*
X469900Y254000D02*
G54D11*
D03*
X419100Y273050D02*
G54D17*
D03*
X419100Y242094D02*
G54D17*
D03*
X439738Y257175D02*
G54D17*
D03*
X469900Y431800D02*
G54D11*
D03*
X469900Y355600D02*
G54D11*
D03*
G54D20*
X469900Y431800D02*
X450850Y412750D01*
G54D20*
X419100Y393700D02*
X419100Y355600D01*
G54D20*
X469900Y355600D02*
X469900Y330200D01*
G54D20*
X355600Y339725D02*
X355600Y260350D01*
X377825Y238125D01*
X377825Y135575D01*
X356550Y114300D01*
X450850Y206375D02*
G54D11*
D03*
G36*
X460850Y216375D02*
X480850Y216375D01*
X480850Y196375D01*
X460850Y196375D01*
X460850Y216375D01*
G37*
X419100Y127000D02*
G54D11*
D03*
X419100Y50800D02*
G54D11*
D03*
G54D20*
X469900Y330200D02*
X469900Y301625D01*
X485775Y285750D01*
X485775Y241300D01*
X473075Y228600D01*
X473075Y208600D01*
X470850Y206375D01*
X473075Y142875D02*
G54D23*
D03*
G54D20*
X470850Y206375D02*
X470850Y159700D01*
X438150Y127000D01*
X419100Y127000D01*
X460375Y133350D02*
G54D23*
D03*
G36*
X421475Y32550D02*
X448475Y32550D01*
X448475Y5550D01*
X421475Y5550D01*
X421475Y32550D01*
G37*
X403225Y19050D02*
G54D10*
D03*
G54D24*
X473075Y142875D02*
X473075Y19050D01*
G54D24*
X460375Y133350D02*
X460375Y44450D01*
X434975Y19050D01*
G54D25*
X469900Y431800D02*
X498475Y431800D01*
G54D25*
X406400Y412750D02*
X406400Y400050D01*
G54D25*
X406400Y400050D02*
X406400Y365125D01*
X387350Y346075D01*
X387350Y107950D01*
X365125Y85725D01*
X365125Y3175D01*
G54D20*
X469900Y254000D02*
X469900Y282575D01*
X460375Y292100D01*
X438150Y292100D01*
X419100Y273050D01*
G54D20*
X438150Y292100D02*
X438150Y338138D01*
X439738Y339725D01*
X336550Y19050D02*
G54D10*
D03*
G54D19*
X136525Y76200D02*
X146050Y66675D01*
X155575Y76200D01*
G36*
X47625Y95250D02*
X47625Y73050D01*
X69826Y73050D01*
X92075Y50800D01*
X130175Y50800D01*
X142875Y38100D01*
X142875Y73025D01*
X146050Y76200D01*
X95250Y76200D01*
X76200Y95250D01*
X47625Y95250D01*
G37*
G54D14*
X47625Y95250D02*
X47625Y73050D01*
X69826Y73050D01*
X92075Y50800D01*
X130175Y50800D01*
X142875Y38100D01*
X142875Y73025D01*
X146050Y76200D01*
X95250Y76200D01*
X76200Y95250D01*
X47625Y95250D01*
G36*
X190500Y392906D02*
X228600Y393700D01*
X228600Y362744D01*
X190500Y362744D01*
X190500Y392906D01*
G37*
G54D14*
X190500Y392906D02*
X228600Y393700D01*
X228600Y362744D01*
X190500Y362744D01*
X190500Y392906D01*
G36*
X190500Y392906D02*
X222250Y392906D01*
X222250Y381000D01*
X190500Y381000D01*
X190500Y392906D01*
G37*
G54D14*
X190500Y392906D02*
X222250Y392906D01*
X222250Y381000D01*
X190500Y381000D01*
X190500Y392906D01*
G54D20*
G75*
G01X152400Y470000D02*
G03X152400Y470000I-1438J0D01*
G01*
G54D20*
X150962Y470000D02*
X150962Y449412D01*
X139700Y438150D01*
X50801Y438150D01*
X39050Y426400D01*
%LPD*%
G54D26*
G36*
X15217Y19050D02*
X15217Y33050D01*
X22883Y33050D01*
X22883Y19050D01*
X15217Y19050D01*
G37*
G36*
X19050Y22883D02*
X33050Y22883D01*
X33050Y15217D01*
X19050Y15217D01*
X19050Y22883D01*
G37*
G54D26*
G36*
X170792Y19050D02*
X170792Y33050D01*
X178458Y33050D01*
X178458Y19050D01*
X170792Y19050D01*
G37*
G36*
X174625Y22883D02*
X188625Y22883D01*
X188625Y15217D01*
X174625Y15217D01*
X174625Y22883D01*
G37*
G36*
X178458Y19050D02*
X178458Y5050D01*
X170792Y5050D01*
X170792Y19050D01*
X178458Y19050D01*
G37*
G36*
X174625Y15217D02*
X160625Y15217D01*
X160625Y22883D01*
X174625Y22883D01*
X174625Y15217D01*
G37*
G54D27*
G36*
X19558Y95250D02*
X19558Y105750D01*
X24892Y105750D01*
X24892Y95250D01*
X19558Y95250D01*
G37*
G36*
X22225Y97917D02*
X32725Y97917D01*
X32725Y92583D01*
X22225Y92583D01*
X22225Y97917D01*
G37*
G36*
X24892Y95250D02*
X24892Y84750D01*
X19558Y84750D01*
X19558Y95250D01*
X24892Y95250D01*
G37*
G36*
X22225Y92583D02*
X11725Y92583D01*
X11725Y97917D01*
X22225Y97917D01*
X22225Y92583D01*
G37*
G54D27*
G36*
X16383Y146050D02*
X16383Y156550D01*
X21717Y156550D01*
X21717Y146050D01*
X16383Y146050D01*
G37*
G36*
X19050Y148717D02*
X29550Y148717D01*
X29550Y143383D01*
X19050Y143383D01*
X19050Y148717D01*
G37*
G36*
X21717Y146050D02*
X21717Y135550D01*
X16383Y135550D01*
X16383Y146050D01*
X21717Y146050D01*
G37*
G36*
X19050Y143383D02*
X8550Y143383D01*
X8550Y148717D01*
X19050Y148717D01*
X19050Y143383D01*
G37*
G54D27*
G36*
X16383Y219075D02*
X16383Y229575D01*
X21717Y229575D01*
X21717Y219075D01*
X16383Y219075D01*
G37*
G36*
X21717Y219075D02*
X21717Y208575D01*
X16383Y208575D01*
X16383Y219075D01*
X21717Y219075D01*
G37*
G36*
X19050Y216408D02*
X8550Y216408D01*
X8550Y221742D01*
X19050Y221742D01*
X19050Y216408D01*
G37*
G54D28*
G36*
X353567Y470000D02*
X353567Y455000D01*
X345233Y455000D01*
X345233Y470000D01*
X353567Y470000D01*
G37*
G36*
X349400Y465833D02*
X334400Y465833D01*
X334400Y474167D01*
X349400Y474167D01*
X349400Y465833D01*
G37*
G36*
X345233Y470000D02*
X345233Y485000D01*
X353567Y485000D01*
X353567Y470000D01*
X345233Y470000D01*
G37*
G36*
X349400Y474167D02*
X364400Y474167D01*
X364400Y465833D01*
X349400Y465833D01*
X349400Y474167D01*
G37*
G54D28*
G36*
X104329Y470000D02*
X104329Y455000D01*
X95995Y455000D01*
X95995Y470000D01*
X104329Y470000D01*
G37*
G36*
X100162Y465833D02*
X85162Y465833D01*
X85162Y474167D01*
X100162Y474167D01*
X100162Y465833D01*
G37*
G36*
X95995Y470000D02*
X95995Y485000D01*
X104329Y485000D01*
X104329Y470000D01*
X95995Y470000D01*
G37*
G36*
X100162Y474167D02*
X115162Y474167D01*
X115162Y465833D01*
X100162Y465833D01*
X100162Y474167D01*
G37*
G54D28*
G36*
X53529Y470000D02*
X53529Y455000D01*
X45195Y455000D01*
X45195Y470000D01*
X53529Y470000D01*
G37*
G36*
X49362Y465833D02*
X34362Y465833D01*
X34362Y474167D01*
X49362Y474167D01*
X49362Y465833D01*
G37*
G36*
X45195Y470000D02*
X45195Y485000D01*
X53529Y485000D01*
X53529Y470000D01*
X45195Y470000D01*
G37*
G36*
X49362Y474167D02*
X64362Y474167D01*
X64362Y465833D01*
X49362Y465833D01*
X49362Y474167D01*
G37*
G54D26*
G36*
X143169Y19050D02*
X143169Y33050D01*
X150836Y33050D01*
X150836Y19050D01*
X143169Y19050D01*
G37*
G36*
X147002Y22883D02*
X161002Y22883D01*
X161002Y15217D01*
X147002Y15217D01*
X147002Y22883D01*
G37*
G36*
X150836Y19050D02*
X150836Y5050D01*
X143169Y5050D01*
X143169Y19050D01*
X150836Y19050D01*
G37*
G36*
X147002Y15217D02*
X133002Y15217D01*
X133002Y22883D01*
X147002Y22883D01*
X147002Y15217D01*
G37*
G54D27*
G36*
X16383Y174625D02*
X16383Y185125D01*
X21717Y185125D01*
X21717Y174625D01*
X16383Y174625D01*
G37*
G36*
X19050Y177292D02*
X29550Y177292D01*
X29550Y171958D01*
X19050Y171958D01*
X19050Y177292D01*
G37*
G36*
X21717Y174625D02*
X21717Y164125D01*
X16383Y164125D01*
X16383Y174625D01*
X21717Y174625D01*
G37*
G36*
X19050Y171958D02*
X8550Y171958D01*
X8550Y177292D01*
X19050Y177292D01*
X19050Y171958D01*
G37*
G54D27*
G36*
X76200Y301117D02*
X86700Y301117D01*
X86700Y295783D01*
X76200Y295783D01*
X76200Y301117D01*
G37*
G36*
X78867Y298450D02*
X78867Y287950D01*
X73533Y287950D01*
X73533Y298450D01*
X78867Y298450D01*
G37*
G36*
X76200Y295783D02*
X65700Y295783D01*
X65700Y301117D01*
X76200Y301117D01*
X76200Y295783D01*
G37*
G36*
X73533Y298450D02*
X73533Y308950D01*
X78867Y308950D01*
X78867Y298450D01*
X73533Y298450D01*
G37*
G54D27*
G36*
X241300Y301117D02*
X251800Y301117D01*
X251800Y295783D01*
X241300Y295783D01*
X241300Y301117D01*
G37*
G36*
X243967Y298450D02*
X243967Y287950D01*
X238633Y287950D01*
X238633Y298450D01*
X243967Y298450D01*
G37*
G36*
X241300Y295783D02*
X230800Y295783D01*
X230800Y301117D01*
X241300Y301117D01*
X241300Y295783D01*
G37*
G36*
X238633Y298450D02*
X238633Y308950D01*
X243967Y308950D01*
X243967Y298450D01*
X238633Y298450D01*
G37*
G54D27*
G36*
X127000Y224917D02*
X137500Y224917D01*
X137500Y219583D01*
X127000Y219583D01*
X127000Y224917D01*
G37*
G36*
X129667Y222250D02*
X129667Y211750D01*
X124333Y211750D01*
X124333Y222250D01*
X129667Y222250D01*
G37*
G36*
X127000Y219583D02*
X116500Y219583D01*
X116500Y224917D01*
X127000Y224917D01*
X127000Y219583D01*
G37*
G36*
X124333Y222250D02*
X124333Y232750D01*
X129667Y232750D01*
X129667Y222250D01*
X124333Y222250D01*
G37*
G54D27*
G36*
X50800Y301117D02*
X61300Y301117D01*
X61300Y295783D01*
X50800Y295783D01*
X50800Y301117D01*
G37*
G36*
X53467Y298450D02*
X53467Y287950D01*
X48133Y287950D01*
X48133Y298450D01*
X53467Y298450D01*
G37*
G36*
X50800Y295783D02*
X40300Y295783D01*
X40300Y301117D01*
X50800Y301117D01*
X50800Y295783D01*
G37*
G36*
X48133Y298450D02*
X48133Y308950D01*
X53467Y308950D01*
X53467Y298450D01*
X48133Y298450D01*
G37*
G54D12*
G36*
X220819Y72446D02*
X206319Y72446D01*
X206319Y80446D01*
X220819Y80446D01*
X220819Y72446D01*
G37*
G36*
X216819Y76446D02*
X216819Y90946D01*
X224819Y90946D01*
X224819Y76446D01*
X216819Y76446D01*
G37*
G36*
X220819Y80446D02*
X235319Y80446D01*
X235319Y72446D01*
X220819Y72446D01*
X220819Y80446D01*
G37*
G36*
X224819Y76446D02*
X224819Y61946D01*
X216819Y61946D01*
X216819Y76446D01*
X224819Y76446D01*
G37*
G54D27*
G36*
X98933Y168275D02*
X98933Y178775D01*
X104267Y178775D01*
X104267Y168275D01*
X98933Y168275D01*
G37*
G36*
X104267Y168275D02*
X104267Y157775D01*
X98933Y157775D01*
X98933Y168275D01*
X104267Y168275D01*
G37*
G36*
X101600Y165608D02*
X91100Y165608D01*
X91100Y170942D01*
X101600Y170942D01*
X101600Y165608D01*
G37*
G54D27*
G36*
X298958Y200025D02*
X298958Y210525D01*
X304292Y210525D01*
X304292Y200025D01*
X298958Y200025D01*
G37*
G36*
X301625Y202692D02*
X312125Y202692D01*
X312125Y197358D01*
X301625Y197358D01*
X301625Y202692D01*
G37*
G36*
X304292Y200025D02*
X304292Y189525D01*
X298958Y189525D01*
X298958Y200025D01*
X304292Y200025D01*
G37*
G36*
X301625Y197358D02*
X291125Y197358D01*
X291125Y202692D01*
X301625Y202692D01*
X301625Y197358D01*
G37*
G54D27*
G36*
X298450Y224917D02*
X308950Y224917D01*
X308950Y219583D01*
X298450Y219583D01*
X298450Y224917D01*
G37*
G36*
X301117Y222250D02*
X301117Y211750D01*
X295783Y211750D01*
X295783Y222250D01*
X301117Y222250D01*
G37*
G36*
X298450Y219583D02*
X287950Y219583D01*
X287950Y224917D01*
X298450Y224917D01*
X298450Y219583D01*
G37*
G36*
X295783Y222250D02*
X295783Y232750D01*
X301117Y232750D01*
X301117Y222250D01*
X295783Y222250D01*
G37*
G54D27*
G36*
X268288Y53467D02*
X278788Y53467D01*
X278788Y48133D01*
X268288Y48133D01*
X268288Y53467D01*
G37*
G36*
X270955Y50800D02*
X270955Y40300D01*
X265621Y40300D01*
X265621Y50800D01*
X270955Y50800D01*
G37*
G36*
X268288Y48133D02*
X257788Y48133D01*
X257788Y53467D01*
X268288Y53467D01*
X268288Y48133D01*
G37*
G36*
X265621Y50800D02*
X265621Y61300D01*
X270955Y61300D01*
X270955Y50800D01*
X265621Y50800D01*
G37*
G54D26*
G36*
X229212Y19050D02*
X229212Y33050D01*
X236878Y33050D01*
X236878Y19050D01*
X229212Y19050D01*
G37*
G36*
X233045Y22883D02*
X247045Y22883D01*
X247045Y15217D01*
X233045Y15217D01*
X233045Y22883D01*
G37*
G36*
X236878Y19050D02*
X236878Y5050D01*
X229212Y5050D01*
X229212Y19050D01*
X236878Y19050D01*
G37*
G36*
X233045Y15217D02*
X219045Y15217D01*
X219045Y22883D01*
X233045Y22883D01*
X233045Y15217D01*
G37*
G54D26*
G36*
X259692Y19050D02*
X259692Y33050D01*
X267358Y33050D01*
X267358Y19050D01*
X259692Y19050D01*
G37*
G36*
X263525Y22883D02*
X277525Y22883D01*
X277525Y15217D01*
X263525Y15217D01*
X263525Y22883D01*
G37*
G36*
X267358Y19050D02*
X267358Y5050D01*
X259692Y5050D01*
X259692Y19050D01*
X267358Y19050D01*
G37*
G36*
X263525Y15217D02*
X249525Y15217D01*
X249525Y22883D01*
X263525Y22883D01*
X263525Y15217D01*
G37*
G54D15*
G36*
X419100Y327644D02*
X430600Y327644D01*
X430600Y321644D01*
X419100Y321644D01*
X419100Y327644D01*
G37*
G36*
X422100Y324644D02*
X422100Y313144D01*
X416100Y313144D01*
X416100Y324644D01*
X422100Y324644D01*
G37*
G36*
X419100Y321644D02*
X407600Y321644D01*
X407600Y327644D01*
X419100Y327644D01*
X419100Y321644D01*
G37*
G36*
X416100Y324644D02*
X416100Y336144D01*
X422100Y336144D01*
X422100Y324644D01*
X416100Y324644D01*
G37*
G54D15*
G36*
X439738Y260175D02*
X451238Y260175D01*
X451238Y254175D01*
X439738Y254175D01*
X439738Y260175D01*
G37*
G36*
X442738Y257175D02*
X442738Y245675D01*
X436738Y245675D01*
X436738Y257175D01*
X442738Y257175D01*
G37*
G36*
X439738Y254175D02*
X428238Y254175D01*
X428238Y260175D01*
X439738Y260175D01*
X439738Y254175D01*
G37*
G36*
X436738Y257175D02*
X436738Y268675D01*
X442738Y268675D01*
X442738Y257175D01*
X436738Y257175D01*
G37*
G54D27*
G36*
X448183Y206375D02*
X448183Y216875D01*
X453517Y216875D01*
X453517Y206375D01*
X448183Y206375D01*
G37*
G36*
X453517Y206375D02*
X453517Y195875D01*
X448183Y195875D01*
X448183Y206375D01*
X453517Y206375D01*
G37*
G36*
X450850Y203708D02*
X440350Y203708D01*
X440350Y209042D01*
X450850Y209042D01*
X450850Y203708D01*
G37*
G54D26*
G36*
X399392Y19050D02*
X399392Y33050D01*
X407058Y33050D01*
X407058Y19050D01*
X399392Y19050D01*
G37*
G36*
X403225Y22883D02*
X417225Y22883D01*
X417225Y15217D01*
X403225Y15217D01*
X403225Y22883D01*
G37*
G36*
X407058Y19050D02*
X407058Y5050D01*
X399392Y5050D01*
X399392Y19050D01*
X407058Y19050D01*
G37*
G36*
X403225Y15217D02*
X389225Y15217D01*
X389225Y22883D01*
X403225Y22883D01*
X403225Y15217D01*
G37*
G54D26*
G36*
X332717Y19050D02*
X332717Y33050D01*
X340383Y33050D01*
X340383Y19050D01*
X332717Y19050D01*
G37*
G36*
X336550Y22883D02*
X350550Y22883D01*
X350550Y15217D01*
X336550Y15217D01*
X336550Y22883D01*
G37*
G36*
X340383Y19050D02*
X340383Y5050D01*
X332717Y5050D01*
X332717Y19050D01*
X340383Y19050D01*
G37*
G36*
X336550Y15217D02*
X322550Y15217D01*
X322550Y22883D01*
X336550Y22883D01*
X336550Y15217D01*
G37*
X19050Y19050D02*
G54D29*
D03*
G36*
X39300Y30550D02*
X62300Y30550D01*
X62300Y7550D01*
X39300Y7550D01*
X39300Y30550D01*
G37*
X174625Y19050D02*
G54D29*
D03*
G36*
X191700Y30550D02*
X214700Y30550D01*
X214700Y7550D01*
X191700Y7550D01*
X191700Y30550D01*
G37*
X22225Y95250D02*
G54D30*
D03*
G36*
X39625Y103250D02*
X55625Y103250D01*
X55625Y87250D01*
X39625Y87250D01*
X39625Y103250D01*
G37*
G36*
X286950Y30550D02*
X309950Y30550D01*
X309950Y7550D01*
X286950Y7550D01*
X286950Y30550D01*
G37*
X19050Y146050D02*
G54D30*
D03*
X69850Y146050D02*
G54D30*
D03*
G36*
X461575Y30550D02*
X484575Y30550D01*
X484575Y7550D01*
X461575Y7550D01*
X461575Y30550D01*
G37*
X19050Y219075D02*
G54D30*
D03*
G36*
X31050Y227074D02*
X47050Y227074D01*
X47050Y211074D01*
X31050Y211074D01*
X31050Y227074D01*
G37*
G36*
X77400Y30550D02*
X100400Y30550D01*
X100400Y7550D01*
X77400Y7550D01*
X77400Y30550D01*
G37*
X451000Y470000D02*
G54D31*
D03*
X400200Y470000D02*
G54D31*
D03*
X349400Y470000D02*
G54D31*
D03*
X150962Y470000D02*
G54D31*
D03*
X100162Y470000D02*
G54D31*
D03*
X49362Y470000D02*
G54D31*
D03*
X301000Y169962D02*
G54D31*
D03*
X250200Y169963D02*
G54D31*
D03*
X199400Y169962D02*
G54D31*
D03*
X190500Y361950D02*
G54D32*
D03*
X190500Y392906D02*
G54D32*
D03*
X169862Y377825D02*
G54D32*
D03*
X127000Y50800D02*
G54D33*
D03*
X50800Y50800D02*
G54D33*
D03*
G54D12*
X50800Y50800D02*
X50800Y19050D01*
G54D12*
X44450Y95250D02*
X44450Y136525D01*
X53975Y146050D01*
X69850Y146050D01*
G54D12*
X44450Y95250D02*
X76200Y95250D01*
X95250Y76200D01*
X146050Y76200D01*
X146050Y44450D01*
X120650Y19050D01*
X89925Y19050D01*
X88375Y17500D01*
X147002Y19050D02*
G54D29*
D03*
X190500Y323850D02*
G54D30*
D03*
X266700Y323850D02*
G54D30*
D03*
X19050Y174625D02*
G54D30*
D03*
X69850Y174625D02*
G54D30*
D03*
G54D12*
X69850Y174625D02*
X44450Y174625D01*
X38100Y180975D01*
X38100Y218124D01*
X39050Y219074D01*
G54D12*
X127000Y50800D02*
X92075Y50800D01*
X73025Y69850D01*
X50800Y69850D01*
X44450Y76200D01*
X44450Y95250D01*
X228600Y393700D02*
G54D32*
D03*
X228600Y362744D02*
G54D32*
D03*
X249237Y377825D02*
G54D32*
D03*
G54D15*
X190500Y361950D02*
X227806Y361950D01*
X228600Y362744D01*
G54D15*
X169862Y377825D02*
X249237Y377825D01*
G54D15*
X190500Y392906D02*
X227806Y392906D01*
X228600Y393700D01*
X76200Y298450D02*
G54D30*
D03*
X76200Y222250D02*
G54D30*
D03*
X101600Y298450D02*
G54D30*
D03*
X101600Y222250D02*
G54D30*
D03*
X152400Y298450D02*
G54D30*
D03*
X152400Y222250D02*
G54D30*
D03*
X177800Y298450D02*
G54D30*
D03*
X177800Y222250D02*
G54D30*
D03*
X241300Y298450D02*
G54D30*
D03*
X241300Y222250D02*
G54D30*
D03*
X114300Y393700D02*
G54D32*
D03*
X114300Y362744D02*
G54D32*
D03*
X134938Y377825D02*
G54D32*
D03*
X114300Y323850D02*
G54D30*
D03*
X165100Y323850D02*
G54D30*
D03*
G54D12*
X95250Y222250D02*
X69850Y222250D01*
X42226Y222250D01*
X39050Y219074D01*
X127000Y298450D02*
G54D30*
D03*
X127000Y222250D02*
G54D30*
D03*
G54D15*
X152400Y222250D02*
X152400Y209550D01*
X146050Y203200D01*
X107950Y203200D01*
X101600Y209550D01*
X101600Y222250D01*
X57150Y266700D02*
G54D34*
D03*
G54D12*
X101600Y298450D02*
X101600Y273050D01*
X95250Y266700D01*
X57150Y266700D01*
G54D12*
X101600Y298450D02*
X82550Y317500D01*
X82550Y381000D01*
X95250Y393700D01*
X114300Y393700D01*
G54D15*
X114300Y362744D02*
X114300Y323850D01*
X114300Y311150D01*
X127000Y298450D01*
G54D15*
X134938Y377825D02*
X134938Y315912D01*
X152400Y298450D01*
G54D15*
X152400Y298450D02*
X177800Y298450D01*
X50800Y374650D02*
G54D30*
D03*
X50800Y298450D02*
G54D30*
D03*
X39050Y426400D02*
G54D30*
D03*
G36*
X47050Y414400D02*
X47050Y398400D01*
X31050Y398400D01*
X31050Y414400D01*
X47050Y414400D01*
G37*
G54D15*
X39050Y409574D02*
X39050Y386400D01*
X50800Y374650D01*
G54D15*
X190500Y392906D02*
X178594Y392906D01*
X152400Y419100D01*
X88900Y419100D01*
X76200Y406400D01*
G54D15*
X76200Y406400D02*
X39050Y406400D01*
G54D12*
X190500Y323850D02*
X165100Y323850D01*
G54D15*
X266700Y323850D02*
X266700Y360362D01*
X249237Y377825D01*
X220819Y76446D02*
G54D35*
D03*
X220819Y127246D02*
G54D35*
D03*
X119219Y101846D02*
G54D35*
D03*
G54D12*
X220819Y127246D02*
X220819Y125569D01*
X171450Y76200D01*
X146050Y76200D01*
X266700Y298450D02*
G54D30*
D03*
X266700Y222250D02*
G54D30*
D03*
G54D15*
X266700Y323850D02*
X266700Y298450D01*
X101600Y168275D02*
G54D30*
D03*
G36*
X113600Y176274D02*
X129600Y176274D01*
X129600Y160274D01*
X113600Y160274D01*
X113600Y176274D01*
G37*
G54D15*
X119219Y101846D02*
X119219Y165894D01*
X121600Y168274D01*
X209550Y273050D02*
G54D30*
D03*
X209550Y222250D02*
G54D30*
D03*
X320675Y393700D02*
G54D32*
D03*
X320675Y362744D02*
G54D32*
D03*
X341312Y377825D02*
G54D32*
D03*
G54D15*
X209550Y273050D02*
X209550Y273050D01*
X177800Y241300D01*
X177800Y222250D01*
G54D15*
X241300Y222250D02*
X209550Y222250D01*
X165100Y120650D02*
G54D34*
D03*
X241300Y107950D02*
G54D36*
D03*
G54D37*
X209550Y222250D02*
X209550Y209550D01*
X193675Y196850D01*
X184150Y196850D01*
X165100Y177800D01*
X165100Y120650D01*
G54D37*
X266700Y222250D02*
X266700Y231850D01*
X257200Y241350D01*
X203250Y241350D01*
X193675Y231775D01*
X193675Y215900D01*
X187325Y209550D01*
X177800Y209550D01*
X136525Y168275D01*
X121600Y168274D01*
X288856Y399970D02*
G54D30*
D03*
X288856Y323770D02*
G54D30*
D03*
G54D15*
X320675Y393700D02*
X295126Y393700D01*
X288856Y399970D01*
X336550Y171450D02*
G54D30*
D03*
G36*
X348550Y179450D02*
X364550Y179450D01*
X364550Y163450D01*
X348550Y163450D01*
X348550Y179450D01*
G37*
X250825Y200025D02*
G54D30*
D03*
X301625Y200025D02*
G54D30*
D03*
X177800Y415925D02*
G54D34*
D03*
G54D15*
X177800Y415925D02*
X238125Y415925D01*
X254000Y400050D01*
X288776Y400050D01*
X288856Y399970D01*
X298450Y298450D02*
G54D30*
D03*
X298450Y222250D02*
G54D30*
D03*
X323850Y298450D02*
G54D30*
D03*
X323850Y222250D02*
G54D30*
D03*
G54D15*
X320675Y362744D02*
X320675Y320675D01*
X298450Y298450D01*
G54D15*
X250825Y200025D02*
X229462Y200025D01*
X199400Y169962D01*
G54D15*
X339725Y168275D02*
X302687Y168275D01*
X301000Y169962D01*
G54D15*
X288856Y323770D02*
X288856Y314256D01*
X282575Y307975D01*
X282575Y266700D01*
X295275Y254000D01*
X342900Y254000D01*
X358775Y238125D01*
X358775Y169225D01*
G54D15*
X341312Y377825D02*
X341312Y315912D01*
X323850Y298450D01*
G54D15*
X241300Y107950D02*
X241300Y57150D01*
X203200Y19050D01*
X373504Y430396D02*
G54D30*
D03*
X373504Y379596D02*
G54D30*
D03*
G54D15*
X341312Y377825D02*
X371732Y377825D01*
X373504Y379596D01*
G54D15*
X373504Y430396D02*
X389121Y430396D01*
X400050Y441325D01*
X400050Y469850D01*
X400200Y470000D01*
X336550Y114300D02*
G54D30*
D03*
G36*
X348550Y122300D02*
X364550Y122300D01*
X364550Y106300D01*
X348550Y106300D01*
X348550Y122300D01*
G37*
X355600Y339725D02*
G54D36*
D03*
X268288Y127000D02*
G54D30*
D03*
X268288Y50800D02*
G54D30*
D03*
X298450Y127000D02*
G54D30*
D03*
X298450Y50800D02*
G54D30*
D03*
G54D15*
X336550Y114300D02*
X311150Y114300D01*
X298450Y127000D01*
X268288Y127000D01*
G54D15*
X298450Y50800D02*
X298450Y19050D01*
X233045Y19050D02*
G54D29*
D03*
X263525Y19050D02*
G54D29*
D03*
X237778Y460000D02*
G54D32*
D03*
G36*
X272178Y451000D02*
X254178Y451000D01*
X254178Y469000D01*
X272178Y469000D01*
X272178Y451000D01*
G37*
G54D15*
X222250Y127000D02*
X241300Y127000D01*
X282575Y85725D01*
X320675Y85725D01*
X336550Y69850D01*
X393700Y69850D01*
X419100Y50800D01*
X419100Y355600D02*
G54D32*
D03*
X419100Y324644D02*
G54D32*
D03*
X439738Y339725D02*
G54D32*
D03*
G54D15*
X263178Y460000D02*
X263178Y454372D01*
X273050Y444500D01*
X323850Y444500D01*
X355600Y412750D01*
G54D15*
X237778Y460000D02*
X237778Y454372D01*
X260350Y431800D01*
X317500Y431800D01*
X349250Y400050D01*
X412750Y400050D01*
X419100Y393700D01*
G54D15*
X355600Y412750D02*
X450850Y412750D01*
X469900Y330200D02*
G54D30*
D03*
X469900Y254000D02*
G54D30*
D03*
X419100Y273050D02*
G54D32*
D03*
X419100Y242094D02*
G54D32*
D03*
X439738Y257175D02*
G54D32*
D03*
X469900Y431800D02*
G54D30*
D03*
X469900Y355600D02*
G54D30*
D03*
G54D15*
X469900Y431800D02*
X450850Y412750D01*
G54D15*
X419100Y393700D02*
X419100Y355600D01*
G54D15*
X469900Y355600D02*
X469900Y330200D01*
G54D15*
X355600Y339725D02*
X355600Y260350D01*
X377825Y238125D01*
X377825Y135575D01*
X356550Y114300D01*
X450850Y206375D02*
G54D30*
D03*
G36*
X462850Y214375D02*
X478850Y214375D01*
X478850Y198375D01*
X462850Y198375D01*
X462850Y214375D01*
G37*
X419100Y127000D02*
G54D30*
D03*
X419100Y50800D02*
G54D30*
D03*
G54D15*
X469900Y330200D02*
X469900Y301625D01*
X485775Y285750D01*
X485775Y241300D01*
X473075Y228600D01*
X473075Y208600D01*
X470850Y206375D01*
X473075Y142875D02*
G54D36*
D03*
G54D15*
X470850Y206375D02*
X470850Y159700D01*
X438150Y127000D01*
X419100Y127000D01*
X460375Y133350D02*
G54D36*
D03*
G36*
X423475Y30550D02*
X446475Y30550D01*
X446475Y7550D01*
X423475Y7550D01*
X423475Y30550D01*
G37*
X403225Y19050D02*
G54D29*
D03*
G54D37*
X473075Y142875D02*
X473075Y19050D01*
G54D37*
X460375Y133350D02*
X460375Y44450D01*
X434975Y19050D01*
G54D15*
X469900Y254000D02*
X469900Y282575D01*
X460375Y292100D01*
X438150Y292100D01*
X419100Y273050D01*
G54D15*
X438150Y292100D02*
X438150Y338138D01*
X439738Y339725D01*
X336550Y19050D02*
G54D29*
D03*
G54D12*
X136525Y76200D02*
X146050Y66675D01*
X155575Y76200D01*
G54D15*
G75*
G01X152400Y470000D02*
G03X152400Y470000I-1438J0D01*
G01*
G54D15*
X150962Y470000D02*
X150962Y449412D01*
X139700Y438150D01*
X50801Y438150D01*
X39050Y426400D01*
M02*
