%FSLAX34Y34*%
%MOMM*%
%LNSOLDERMASK_TOP*%
G71*
G01*
%ADD10C, 2.700*%
%ADD11C, 2.000*%
%ADD12C, 2.900*%
%ADD13C, 2.200*%
%ADD14C, 2.400*%
%ADD15C, 2.800*%
%ADD16C, 2.200*%
%ADD17R, 1.700X1.800*%
%LPD*%
X19050Y19050D02*
G54D10*
D03*
G36*
X37300Y32550D02*
X64300Y32550D01*
X64300Y5550D01*
X37300Y5550D01*
X37300Y32550D01*
G37*
X174625Y19050D02*
G54D10*
D03*
G36*
X189700Y32550D02*
X216700Y32550D01*
X216700Y5550D01*
X189700Y5550D01*
X189700Y32550D01*
G37*
X22225Y95250D02*
G54D11*
D03*
G36*
X37625Y105250D02*
X57625Y105250D01*
X57625Y85250D01*
X37625Y85250D01*
X37625Y105250D01*
G37*
G36*
X284950Y32550D02*
X311950Y32550D01*
X311950Y5550D01*
X284950Y5550D01*
X284950Y32550D01*
G37*
X19050Y146050D02*
G54D11*
D03*
X69850Y146050D02*
G54D11*
D03*
G36*
X459575Y32550D02*
X486575Y32550D01*
X486575Y5550D01*
X459575Y5550D01*
X459575Y32550D01*
G37*
X19050Y219075D02*
G54D11*
D03*
G36*
X29050Y229074D02*
X49050Y229074D01*
X49050Y209074D01*
X29050Y209074D01*
X29050Y229074D01*
G37*
G36*
X75400Y32550D02*
X102400Y32550D01*
X102400Y5550D01*
X75400Y5550D01*
X75400Y32550D01*
G37*
X451000Y470000D02*
G54D12*
D03*
X400200Y470000D02*
G54D12*
D03*
X349400Y470000D02*
G54D12*
D03*
X150962Y470000D02*
G54D12*
D03*
X100162Y470000D02*
G54D12*
D03*
X49362Y470000D02*
G54D12*
D03*
X301000Y169962D02*
G54D12*
D03*
X250200Y169963D02*
G54D12*
D03*
X199400Y169962D02*
G54D12*
D03*
X190500Y361950D02*
G54D13*
D03*
X190500Y392906D02*
G54D13*
D03*
X169862Y377825D02*
G54D13*
D03*
X127000Y50800D02*
G54D14*
D03*
X50800Y50800D02*
G54D14*
D03*
X147002Y19050D02*
G54D10*
D03*
X190500Y323850D02*
G54D11*
D03*
X266700Y323850D02*
G54D11*
D03*
X19050Y174625D02*
G54D11*
D03*
X69850Y174625D02*
G54D11*
D03*
X228600Y393700D02*
G54D13*
D03*
X228600Y362744D02*
G54D13*
D03*
X249237Y377825D02*
G54D13*
D03*
X76200Y298450D02*
G54D11*
D03*
X76200Y222250D02*
G54D11*
D03*
X101600Y298450D02*
G54D11*
D03*
X101600Y222250D02*
G54D11*
D03*
X152400Y298450D02*
G54D11*
D03*
X152400Y222250D02*
G54D11*
D03*
X177800Y298450D02*
G54D11*
D03*
X177800Y222250D02*
G54D11*
D03*
X241300Y298450D02*
G54D11*
D03*
X241300Y222250D02*
G54D11*
D03*
X114300Y393700D02*
G54D13*
D03*
X114300Y362744D02*
G54D13*
D03*
X134938Y377825D02*
G54D13*
D03*
X114300Y323850D02*
G54D11*
D03*
X165100Y323850D02*
G54D11*
D03*
X127000Y298450D02*
G54D11*
D03*
X127000Y222250D02*
G54D11*
D03*
X50800Y374650D02*
G54D11*
D03*
X50800Y298450D02*
G54D11*
D03*
X39050Y426400D02*
G54D11*
D03*
G36*
X49050Y416400D02*
X49050Y396400D01*
X29050Y396400D01*
X29050Y416400D01*
X49050Y416400D01*
G37*
X220819Y76446D02*
G54D15*
D03*
X220819Y127246D02*
G54D15*
D03*
X119219Y101846D02*
G54D15*
D03*
X266700Y298450D02*
G54D11*
D03*
X266700Y222250D02*
G54D11*
D03*
X101600Y168275D02*
G54D11*
D03*
G36*
X111600Y178274D02*
X131600Y178274D01*
X131600Y158274D01*
X111600Y158274D01*
X111600Y178274D01*
G37*
X209550Y273050D02*
G54D11*
D03*
X209550Y222250D02*
G54D11*
D03*
X320675Y393700D02*
G54D13*
D03*
X320675Y362744D02*
G54D13*
D03*
X341312Y377825D02*
G54D13*
D03*
X288856Y399970D02*
G54D11*
D03*
X288856Y323770D02*
G54D11*
D03*
X336550Y171450D02*
G54D11*
D03*
G36*
X346550Y181450D02*
X366550Y181450D01*
X366550Y161450D01*
X346550Y161450D01*
X346550Y181450D01*
G37*
X250825Y200025D02*
G54D11*
D03*
X301625Y200025D02*
G54D11*
D03*
X298450Y298450D02*
G54D11*
D03*
X298450Y222250D02*
G54D11*
D03*
X323850Y298450D02*
G54D11*
D03*
X323850Y222250D02*
G54D11*
D03*
X373504Y430396D02*
G54D11*
D03*
X373504Y379596D02*
G54D11*
D03*
X336550Y114300D02*
G54D11*
D03*
G36*
X346550Y124300D02*
X366550Y124300D01*
X366550Y104300D01*
X346550Y104300D01*
X346550Y124300D01*
G37*
X268288Y127000D02*
G54D11*
D03*
X268288Y50800D02*
G54D11*
D03*
X298450Y127000D02*
G54D11*
D03*
X298450Y50800D02*
G54D11*
D03*
X233045Y19050D02*
G54D10*
D03*
X263525Y19050D02*
G54D10*
D03*
X237778Y460000D02*
G54D16*
D03*
G36*
X274178Y449000D02*
X252178Y449000D01*
X252178Y471000D01*
X274178Y471000D01*
X274178Y449000D01*
G37*
X419100Y355600D02*
G54D13*
D03*
X419100Y324644D02*
G54D13*
D03*
X439738Y339725D02*
G54D13*
D03*
X469900Y330200D02*
G54D11*
D03*
X469900Y254000D02*
G54D11*
D03*
X419100Y273050D02*
G54D13*
D03*
X419100Y242094D02*
G54D13*
D03*
X439738Y257175D02*
G54D13*
D03*
X469900Y431800D02*
G54D11*
D03*
X469900Y355600D02*
G54D11*
D03*
X450850Y206375D02*
G54D11*
D03*
G36*
X460850Y216375D02*
X480850Y216375D01*
X480850Y196375D01*
X460850Y196375D01*
X460850Y216375D01*
G37*
X419100Y127000D02*
G54D11*
D03*
X419100Y50800D02*
G54D11*
D03*
G36*
X421475Y32550D02*
X448475Y32550D01*
X448475Y5550D01*
X421475Y5550D01*
X421475Y32550D01*
G37*
X403225Y19050D02*
G54D10*
D03*
X336550Y19050D02*
G54D10*
D03*
X314325Y323850D02*
G54D17*
D03*
M02*
